<?xml version="1.0" standalone="no"?>
<!DOCTYPE svg PUBLIC "-//W3C//DTD SVG 20010904//EN"
 "http://www.w3.org/TR/2001/REC-SVG-20010904/DTD/svg10.dtd">
<svg version="1.0" xmlns="http://www.w3.org/2000/svg"
 width="1068.000000pt" height="801.000000pt" viewBox="0 0 1068.000000 801.000000"
 preserveAspectRatio="xMidYMid meet">

<g transform="translate(0.000000,801.000000) scale(0.100000,-0.100000)"
fill="#000000" stroke="none">
<path d="M5265 7113 c-16 -3 -34 -8 -40 -12 -5 -5 -40 -16 -77 -26 -44 -12
-82 -30 -111 -54 -88 -72 -102 -82 -124 -87 -12 -3 -20 -11 -17 -19 3 -7 -3
-21 -13 -31 -11 -11 -27 -32 -36 -47 -10 -15 -22 -25 -27 -22 -6 3 -7 -1 -3
-10 4 -11 -3 -25 -19 -38 -38 -33 -51 -108 -53 -304 -2 -193 9 -248 18 -91 8
127 29 206 72 278 45 73 80 109 124 127 45 19 401 27 401 9 0 -11 154 -136
168 -136 4 0 15 -12 24 -27 13 -21 18 -23 18 -10 0 19 19 24 21 5 1 -7 3 -23
4 -35 1 -11 12 -37 24 -57 13 -21 18 -36 11 -36 -28 0 27 -58 83 -86 73 -37
98 -67 103 -125 8 -82 15 -107 28 -112 13 -5 42 -105 39 -134 -2 -24 15 -13
22 15 7 25 8 25 15 7 5 -11 6 -36 4 -55 -5 -33 -4 -34 10 -16 9 11 16 23 16
28 0 4 6 8 13 8 21 0 55 42 40 47 -7 3 -13 15 -13 27 0 13 -10 36 -22 51 l-22
28 -13 -29 c-6 -16 -12 -22 -13 -14 0 11 -2 12 -8 3 -9 -15 -23 -6 -41 27 -10
20 -11 22 0 13 18 -18 39 -16 61 4 11 9 18 11 18 5 0 -7 9 -12 20 -12 16 0 20
7 20 31 0 24 -4 30 -15 25 -20 -7 -19 0 6 40 11 19 27 34 34 34 10 0 13 12 10
43 -1 23 1 47 5 52 13 16 13 27 0 35 -6 4 -12 27 -13 51 -1 25 -9 56 -18 70
-14 20 -32 76 -30 94 0 2 -8 24 -18 47 -10 24 -16 49 -13 57 3 9 0 11 -8 6 -9
-6 -11 -4 -5 4 4 7 -1 22 -13 34 -11 12 -32 42 -48 67 -16 24 -37 52 -46 62
-10 10 -18 23 -18 29 0 5 -4 7 -10 4 -5 -3 -15 6 -22 20 -17 37 -135 106 -189
109 -26 2 -47 10 -55 21 -10 13 -16 14 -33 5 -15 -7 -27 -8 -40 0 -19 10 -126
11 -186 3z m20 -293 c3 -5 1 -10 -4 -10 -6 0 -11 5 -11 10 0 6 2 10 4 10 3 0
8 -4 11 -10z m602 -732 c-3 -7 -5 -2 -5 12 0 14 2 19 5 13 2 -7 2 -19 0 -25z"/>
<path d="M6048 6478 c5 -5 16 -8 23 -6 8 3 3 7 -10 11 -17 4 -21 3 -13 -5z"/>
<path d="M5400 6326 c-41 -12 -85 -28 -97 -34 -28 -15 -32 -56 -5 -48 131 37
251 45 330 21 41 -13 23 13 -30 43 -73 42 -109 45 -198 18z"/>
<path d="M4832 6268 c-27 -27 -13 -38 47 -38 32 0 79 -3 105 -6 41 -6 46 -5
40 10 -4 9 -19 23 -35 31 -34 18 -140 20 -157 3z"/>
<path d="M6005 6260 c-3 -5 8 -40 25 -77 17 -38 28 -57 25 -43 -22 89 -25 105
-21 117 6 15 -20 18 -29 3z"/>
<path d="M5425 6185 c-27 -7 -54 -13 -59 -12 -5 1 -21 -18 -34 -42 -23 -40
-24 -44 -6 -37 15 6 136 8 190 4 14 -2 84 41 84 51 0 11 -84 51 -106 50 -10 0
-41 -6 -69 -14z m-5 -40 c0 -22 -4 -25 -32 -25 l-33 1 28 24 c35 31 37 31 37
0z"/>
<path d="M4926 6138 c-85 -11 -135 -63 -63 -67 76 -3 160 1 180 9 12 5 16 9
10 9 -7 1 -13 7 -13 14 0 28 -52 44 -114 35z m4 -38 c9 -17 8 -20 -9 -20 -22
0 -35 15 -26 30 10 16 23 12 35 -10z"/>
<path d="M6060 5960 c0 -16 -5 -30 -11 -30 -6 0 -20 -11 -31 -25 -19 -25 -89
-50 -113 -41 -8 3 -15 15 -18 28 -3 17 -5 15 -6 -9 0 -18 3 -33 7 -33 4 0 0
-39 -10 -87 -11 -49 -22 -155 -25 -238 -6 -143 -7 -150 -30 -169 -26 -20 -26
-27 -4 -111 6 -22 11 -75 11 -117 0 -64 3 -78 15 -78 13 0 15 -7 9 -37 -4 -21
-7 -44 -7 -50 0 -7 -4 -13 -9 -13 -4 0 -8 -9 -8 -19 0 -11 -5 -21 -11 -23 -5
-2 -12 -16 -13 -32 -2 -16 -11 -33 -20 -38 -18 -10 -23 -78 -6 -78 6 0 10 7
10 15 0 8 5 15 11 15 6 0 8 -9 3 -22 -4 -12 -5 -101 -4 -198 1 -96 4 -256 5
-355 2 -204 13 -373 27 -395 5 -9 6 23 2 80 -4 52 -4 93 -1 90 2 -3 14 -43 25
-90 22 -88 20 -156 -8 -250 -16 -56 -11 -68 12 -31 12 19 23 30 24 25 1 -5 5
-31 9 -57 5 -38 9 -46 19 -38 7 6 16 8 19 4 4 -3 7 -1 7 6 0 7 3 10 8 8 4 -3
8 7 9 21 0 15 6 28 12 30 5 2 8 9 5 17 -3 7 -1 16 5 19 14 9 23 -28 15 -69 -4
-23 -2 -35 5 -35 6 0 11 4 11 8 0 5 7 9 16 9 11 0 14 -7 11 -24 -6 -35 9 -28
19 9 10 34 44 52 44 24 0 -9 4 -16 10 -16 5 0 6 -7 3 -17 -4 -11 -3 -14 5 -9
7 4 12 2 12 -4 0 -16 21 7 39 43 11 20 17 24 23 15 5 -9 8 -6 8 9 0 15 5 20
18 16 12 -3 22 4 30 22 7 14 12 30 12 35 0 4 16 25 35 44 19 20 35 45 35 56 0
10 7 23 17 28 14 8 13 12 -10 27 -20 13 -27 26 -27 49 0 18 5 37 11 43 9 9 4
18 -20 38 -38 33 -43 85 -10 109 l21 14 -21 11 c-56 30 -51 89 12 125 50 29
77 35 182 41 110 7 110 6 107 166 -3 119 -1 135 21 182 13 29 37 66 53 82 28
29 29 31 11 48 -10 10 -15 23 -11 30 4 7 4 9 -1 5 -4 -4 -13 -2 -20 5 -7 7
-38 32 -69 56 -40 32 -53 47 -44 53 10 6 9 8 -3 8 -8 0 -28 14 -45 31 l-29 32
40 -25 c56 -34 74 -43 54 -26 -83 68 -209 231 -209 270 0 8 -18 51 -39 94 -39
78 -111 239 -115 259 -1 6 -10 28 -20 50 -10 22 -24 56 -31 76 -7 20 -18 45
-23 55 -39 77 -45 101 -43 192 1 50 0 92 -3 92 -4 0 -6 -13 -6 -30z m-224
-1082 c-4 -37 -17 -68 -27 -68 -12 0 -11 6 6 40 12 23 13 30 3 30 -9 0 -8 3 2
10 8 5 16 10 17 10 1 0 0 -10 -1 -22z m477 -1113 c-7 -21 -12 -19 -10 4 0 11
5 18 9 15 4 -3 5 -11 1 -19z"/>
<path d="M5365 5810 c-16 -17 -16 -20 -3 -15 9 4 19 13 22 21 7 19 2 18 -19
-6z"/>
<path d="M5263 5778 c-13 -6 -23 -17 -23 -24 0 -10 9 -9 38 5 20 10 44 21 52
24 8 3 2 5 -15 6 -16 0 -40 -5 -52 -11z"/>
<path d="M5425 5675 c-27 -7 -63 -11 -80 -9 -16 3 -24 1 -17 -2 10 -4 10 -9 2
-19 -9 -11 -7 -14 12 -13 13 1 29 6 36 11 8 6 16 7 22 1 13 -13 24 -64 14 -64
-5 0 -25 -14 -44 -31 l-35 -31 30 7 c32 6 155 127 155 152 0 16 -27 15 -95 -2z"/>
<path d="M5050 5605 c38 -39 45 -43 36 -19 -5 14 -4 15 9 4 13 -10 15 -9 15 8
0 14 -10 24 -31 31 -58 20 -65 13 -29 -24z"/>
<path d="M5725 5464 c-64 -59 -195 -157 -254 -191 -25 -15 -56 -35 -69 -44
-23 -17 -22 -18 33 -24 31 -4 70 -5 87 -1 36 7 113 53 179 108 25 21 55 38 67
38 11 0 23 4 26 8 7 11 -5 152 -13 152 -3 0 -28 -21 -56 -46z"/>
<path d="M3623 4851 c-40 -20 -43 -36 -5 -26 31 7 77 46 52 44 -8 -1 -30 -9
-47 -18z"/>
<path d="M3532 4755 c-19 -24 -20 -55 -3 -55 7 0 32 73 26 78 -1 2 -12 -9 -23
-23z"/>
<path d="M3613 4598 c-26 -5 -43 -15 -43 -24 0 -18 2 -18 67 3 85 27 68 42
-24 21z"/>
<path d="M3830 4586 c-14 -8 -29 -12 -34 -9 -5 3 -7 0 -4 -8 3 -8 15 -16 27
-17 15 -2 21 0 17 7 -4 6 0 11 8 11 9 0 16 7 16 15 0 18 1 18 -30 1z"/>
<path d="M4792 4560 c0 -19 2 -27 5 -17 2 9 2 25 0 35 -3 9 -5 1 -5 -18z"/>
<path d="M3941 4514 c-18 -8 -38 -13 -44 -11 -7 2 -20 -7 -30 -20 -19 -24 -38
-24 -101 -1 -23 9 -35 8 -62 -7 -39 -21 -43 -46 -14 -75 11 -11 20 -29 20 -40
0 -16 42 -70 55 -70 2 0 6 19 10 43 4 23 18 55 31 70 13 16 24 32 24 37 0 5
17 12 38 16 20 4 56 18 79 31 31 18 42 21 46 11 3 -7 6 -3 6 10 1 25 -10 26
-58 6z"/>
<path d="M6989 3988 c7 -10 17 -15 22 -12 5 3 9 -1 9 -8 0 -8 15 -22 33 -33
55 -32 110 -81 172 -154 33 -39 63 -71 68 -71 5 0 4 6 -2 13 -6 8 -7 18 -3 22
4 5 1 4 -7 0 -11 -6 -13 -4 -8 7 3 10 0 15 -11 14 -13 -1 -16 6 -14 34 2 31 1
33 -11 16 -12 -16 -14 -16 -26 -2 -8 9 -9 16 -3 16 6 0 12 -6 15 -12 3 -7 4
-3 4 10 -1 23 -12 29 -22 11 -4 -5 -16 8 -27 30 -11 23 -24 41 -29 41 -13 0
-11 -14 4 -30 10 -12 9 -12 -6 0 -10 7 -15 20 -12 28 4 10 0 12 -10 8 -10 -3
-13 -2 -10 5 4 5 15 7 26 4 16 -5 15 -2 -6 19 -14 14 -32 26 -40 26 -8 0 -15
6 -15 13 0 9 -13 14 -35 15 -19 1 -35 -3 -35 -10 0 -6 -7 -5 -17 3 -16 13 -17
12 -4 -3z"/>
<path d="M5822 3770 c0 -14 2 -19 5 -12 2 6 2 18 0 25 -3 6 -5 1 -5 -13z"/>
<path d="M7307 3685 c3 -8 9 -12 14 -9 12 7 11 11 -5 17 -10 4 -13 1 -9 -8z"/>
<path d="M6369 3688 c-1 -2 -2 -17 -4 -34 -2 -29 0 -30 34 -30 33 1 50 10 51
29 0 13 -28 7 -34 -8 -3 -8 -10 -15 -16 -15 -6 0 -4 8 5 17 16 16 16 17 -1 30
-16 12 -32 17 -35 11z"/>
<path d="M7331 3655 c0 -12 69 -88 75 -83 2 2 -14 24 -36 49 -22 24 -39 40
-39 34z"/>
<path d="M4180 3630 c0 -11 -4 -20 -8 -20 -6 0 -27 -55 -48 -129 -5 -17 20
-124 51 -214 13 -38 21 -75 19 -82 -3 -8 17 -62 45 -120 28 -59 51 -111 51
-115 0 -5 5 -10 12 -12 8 -3 12 -21 11 -46 -1 -23 2 -42 8 -42 5 0 9 -13 9
-29 0 -43 11 -91 21 -91 17 0 9 154 -12 230 -12 41 -23 95 -25 120 -15 171
-28 269 -40 303 -8 22 -14 51 -14 65 0 30 -61 202 -72 202 -4 0 -8 -9 -8 -20z"/>
<path d="M6475 3640 c3 -5 8 -10 11 -10 2 0 4 5 4 10 0 6 -5 10 -11 10 -5 0
-7 -4 -4 -10z"/>
<path d="M4537 3320 c3 -11 9 -20 15 -20 5 0 4 9 -2 20 -6 11 -12 20 -14 20
-2 0 -2 -9 1 -20z"/>
<path d="M4540 3256 c0 -20 5 -36 11 -36 6 0 8 7 5 16 -3 9 -2 12 5 8 7 -4 9
2 7 17 -5 39 -28 35 -28 -5z"/>
<path d="M6248 2773 c6 -2 18 -2 25 0 6 3 1 5 -13 5 -14 0 -19 -2 -12 -5z"/>
<path d="M6413 2387 c-52 -51 -374 -230 -584 -323 -204 -91 -499 -184 -581
-184 -44 0 -163 37 -247 78 -81 39 -192 152 -218 222 l-21 54 -6 -44 c-4 -25
-11 -63 -16 -85 -53 -222 -74 -331 -89 -450 -10 -82 -25 -154 -35 -173 -9 -18
-16 -43 -15 -55 2 -17 -8 -106 -16 -137 -5 -20 -17 -122 -25 -210 -17 -198
-30 -277 -65 -414 -54 -209 -145 -621 -145 -658 0 -5 598 -8 1329 -8 l1328 0
16 102 c43 273 49 351 44 528 -4 126 -12 200 -27 265 -21 92 -64 309 -80 403
-13 75 -58 218 -86 274 -13 26 -24 53 -24 59 0 16 -64 153 -171 364 -98 193
-147 279 -186 326 -15 17 -27 43 -28 58 0 33 -23 37 -52 8z"/>
</g>
</svg>
